# xmcd
# 
# Track frame offsets:
#   150
#   18205
#   31255
#   47519
#   62211
#   81947
#   98036
#   114740
#   128305
#   142723
#   158652
#   173529
#   190579
#   210409
# 
# Disc length: 3089 seconds
# 
# Revision: 2
# Processed by: cddbd v1.5.1PL2 Copyright (c) Steve Scherf et al.
# Submitted via: Synapstar 1.0 
# 
DISCID=9e0c0f0e
DTITLE=Various Artist - SD093
DYEAR=1900
DGENRE=Country
TTITLE0=Alan Jackson and George Jones - Drive (For Daddy Gene)
TTITLE1=Jamie O'Neal - Frantic
TTITLE2=George Strait - Living and Living Well
TTITLE3=Brad Paisley - I'm Gonna Miss Her
TTITLE4=Sara Evans - I Keep Lookin
TTITLE5=Brad Martin - Before I Knew Better
TTITLE6=Shannon Lawson - Good Bye ON A Bad Day
TTITLE7=Tracy Byrd - Ten Rounds With Jose Cuevo
TTITLE8=Clint Black - Money Of Love
TTITLE9=Collin Raye - What I Need
TTITLE10=Alison Krauss and Union Station - Let Me Trouch You For Awhile
TTITLE11=Pat Green - Three Days
TTITLE12=Tracy Lawrence - What A Memory
TTITLE13=Dixie Chicks - Travelin' Soldier
EXTD=MediaType: Karaoke CD+G Producer: StarDisc
EXTT0=
EXTT1=
EXTT2=
EXTT3=
EXTT4=
EXTT5=
EXTT6=
EXTT7=
EXTT8=
EXTT9=
EXTT10=
EXTT11=
EXTT12=
EXTT13=
PLAYORDER=
